<?xml version="1.0" encoding="UTF-8" standalone="no"?>
<!DOCTYPE svg PUBLIC "-//W3C//DTD SVG 1.1//EN"
 "http://www.w3.org/Graphics/SVG/1.1/DTD/svg11.dtd">
<!-- Generated by graphviz version 2.38.0 (20140413.2041)
 -->
<!-- Title: Call graph Pages: 1 -->
<svg width="189pt" height="432pt"
 viewBox="0.00 0.00 188.68 432.00" xmlns="http://www.w3.org/2000/svg" xmlns:xlink="http://www.w3.org/1999/xlink">
<g id="graph0" class="graph" transform="scale(1 1) rotate(0) translate(4 428)">
<title>Call graph</title>
<polygon fill="white" stroke="none" points="-4,4 -4,-428 184.684,-428 184.684,4 -4,4"/>
<text text-anchor="middle" x="90.342" y="-7.8" font-family="Times,serif" font-size="14.00">Call graph</text>
<!-- Node0x55c574513e00 -->
<g id="node1" class="node"><title>Node0x55c574513e00</title>
<polygon fill="none" stroke="black" points="54.342,-387.5 54.342,-423.5 144.342,-423.5 144.342,-387.5 54.342,-387.5"/>
<text text-anchor="middle" x="99.342" y="-401.8" font-family="Times,serif" font-size="14.00">external node</text>
</g>
<!-- Node0x55c574513ea0 -->
<g id="node2" class="node"><title>Node0x55c574513ea0</title>
<polygon fill="none" stroke="black" points="81.342,-241.5 81.342,-277.5 135.342,-277.5 135.342,-241.5 81.342,-241.5"/>
<text text-anchor="middle" x="108.342" y="-255.8" font-family="Times,serif" font-size="14.00">x</text>
</g>
<!-- Node0x55c574513e00&#45;&gt;Node0x55c574513ea0 -->
<g id="edge1" class="edge"><title>Node0x55c574513e00&#45;&gt;Node0x55c574513ea0</title>
<path fill="none" stroke="black" d="M95.382,-387.406C91.723,-369.149 87.4025,-339.406 91.342,-314 92.7221,-305.099 95.3215,-295.652 98.0799,-287.213"/>
<polygon fill="black" stroke="black" points="101.47,-288.119 101.452,-277.524 94.8594,-285.818 101.47,-288.119"/>
</g>
<!-- Node0x55c574513f40 -->
<g id="node3" class="node"><title>Node0x55c574513f40</title>
<polygon fill="none" stroke="black" points="63.342,-95.5 63.342,-131.5 117.342,-131.5 117.342,-95.5 63.342,-95.5"/>
<text text-anchor="middle" x="90.342" y="-109.8" font-family="Times,serif" font-size="14.00">printf</text>
</g>
<!-- Node0x55c574513e00&#45;&gt;Node0x55c574513f40 -->
<g id="edge2" class="edge"><title>Node0x55c574513e00&#45;&gt;Node0x55c574513f40</title>
<path fill="none" stroke="black" d="M94.4509,-387.237C91.5865,-376.797 88.0181,-363.191 85.342,-351 74.7867,-302.916 68.8658,-290.106 72.342,-241 74.7817,-206.536 80.9154,-167.184 85.3453,-141.648"/>
<polygon fill="black" stroke="black" points="88.8264,-142.062 87.1237,-131.605 81.9336,-140.841 88.8264,-142.062"/>
</g>
<!-- Node0x55c574513fe0 -->
<g id="node4" class="node"><title>Node0x55c574513fe0</title>
<polygon fill="none" stroke="black" points="118.342,-168.5 118.342,-204.5 172.342,-204.5 172.342,-168.5 118.342,-168.5"/>
<text text-anchor="middle" x="145.342" y="-182.8" font-family="Times,serif" font-size="14.00">y</text>
</g>
<!-- Node0x55c574513e00&#45;&gt;Node0x55c574513fe0 -->
<g id="edge3" class="edge"><title>Node0x55c574513e00&#45;&gt;Node0x55c574513fe0</title>
<path fill="none" stroke="black" d="M129.782,-387.42C142.658,-378.416 156.29,-366.087 163.342,-351 184.164,-306.455 168.833,-247.865 156.562,-214.276"/>
<polygon fill="black" stroke="black" points="159.739,-212.785 152.896,-204.697 153.202,-215.288 159.739,-212.785"/>
</g>
<!-- Node0x55c574514180 -->
<g id="node5" class="node"><title>Node0x55c574514180</title>
<polygon fill="none" stroke="black" points="100.342,-314.5 100.342,-350.5 154.342,-350.5 154.342,-314.5 100.342,-314.5"/>
<text text-anchor="middle" x="127.342" y="-328.8" font-family="Times,serif" font-size="14.00">main</text>
</g>
<!-- Node0x55c574513e00&#45;&gt;Node0x55c574514180 -->
<g id="edge4" class="edge"><title>Node0x55c574513e00&#45;&gt;Node0x55c574514180</title>
<path fill="none" stroke="black" d="M106.12,-387.313C109.353,-379.115 113.293,-369.123 116.897,-359.985"/>
<polygon fill="black" stroke="black" points="120.214,-361.116 120.626,-350.529 113.702,-358.548 120.214,-361.116"/>
</g>
<!-- Node0x55c574513ea0&#45;&gt;Node0x55c574513f40 -->
<g id="edge5" class="edge"><title>Node0x55c574513ea0&#45;&gt;Node0x55c574513f40</title>
<path fill="none" stroke="black" d="M106.206,-241.416C103.121,-216.733 97.3858,-170.851 93.7221,-141.541"/>
<polygon fill="black" stroke="black" points="97.1881,-141.051 92.4747,-131.562 90.2422,-141.919 97.1881,-141.051"/>
</g>
<!-- Node0x55c574513ea0&#45;&gt;Node0x55c574513fe0 -->
<g id="edge6" class="edge"><title>Node0x55c574513ea0&#45;&gt;Node0x55c574513fe0</title>
<path fill="none" stroke="black" d="M117.299,-241.313C121.662,-232.941 127,-222.697 131.843,-213.403"/>
<polygon fill="black" stroke="black" points="134.95,-215.014 136.468,-204.529 128.743,-211.779 134.95,-215.014"/>
</g>
<!-- Node0x55c574513e30 -->
<g id="node6" class="node"><title>Node0x55c574513e30</title>
<ellipse fill="none" stroke="black" cx="90.342" cy="-41" rx="90.1842" ry="18"/>
<text text-anchor="middle" x="90.342" y="-37.3" font-family="Times,serif" font-size="14.00">Node0x55c574513e30</text>
</g>
<!-- Node0x55c574513f40&#45;&gt;Node0x55c574513e30 -->
<g id="edge7" class="edge"><title>Node0x55c574513f40&#45;&gt;Node0x55c574513e30</title>
<path fill="none" stroke="black" d="M90.342,-95.4339C90.342,-87.6695 90.342,-78.2842 90.342,-69.5597"/>
<polygon fill="black" stroke="black" points="93.8421,-69.3987 90.342,-59.3987 86.8421,-69.3987 93.8421,-69.3987"/>
</g>
<!-- Node0x55c574513fe0&#45;&gt;Node0x55c574513f40 -->
<g id="edge8" class="edge"><title>Node0x55c574513fe0&#45;&gt;Node0x55c574513f40</title>
<path fill="none" stroke="black" d="M132.028,-168.313C125.34,-159.679 117.11,-149.055 109.735,-139.534"/>
<polygon fill="black" stroke="black" points="112.424,-137.291 103.533,-131.529 106.89,-141.578 112.424,-137.291"/>
</g>
<!-- Node0x55c574514180&#45;&gt;Node0x55c574513ea0 -->
<g id="edge9" class="edge"><title>Node0x55c574514180&#45;&gt;Node0x55c574513ea0</title>
<path fill="none" stroke="black" d="M122.743,-314.313C120.572,-306.202 117.932,-296.336 115.508,-287.277"/>
<polygon fill="black" stroke="black" points="118.865,-286.284 112.899,-277.529 112.103,-288.094 118.865,-286.284"/>
</g>
</g>
</svg>
