<?xml version="1.0" encoding="UTF-8" standalone="no"?>
<!DOCTYPE svg PUBLIC "-//W3C//DTD SVG 1.1//EN"
 "http://www.w3.org/Graphics/SVG/1.1/DTD/svg11.dtd">
<!-- Generated by graphviz version 2.38.0 (20140413.2041)
 -->
<!-- Title: Call graph Pages: 1 -->
<svg width="389pt" height="286pt"
 viewBox="0.00 0.00 388.50 286.00" xmlns="http://www.w3.org/2000/svg" xmlns:xlink="http://www.w3.org/1999/xlink">
<g id="graph0" class="graph" transform="scale(1 1) rotate(0) translate(4 282)">
<title>Call graph</title>
<polygon fill="white" stroke="none" points="-4,4 -4,-282 384.5,-282 384.5,4 -4,4"/>
<text text-anchor="middle" x="190.25" y="-7.8" font-family="Times,serif" font-size="14.00">Call graph</text>
<!-- Node0x3be2180 -->
<g id="node1" class="node"><title>Node0x3be2180</title>
<polygon fill="none" stroke="black" points="132,-241.5 132,-277.5 222,-277.5 222,-241.5 132,-241.5"/>
<text text-anchor="middle" x="177" y="-255.8" font-family="Times,serif" font-size="14.00">external node</text>
</g>
<!-- Node0x3be2220 -->
<g id="node2" class="node"><title>Node0x3be2220</title>
<polygon fill="none" stroke="black" points="123,-168.5 123,-204.5 177,-204.5 177,-168.5 123,-168.5"/>
<text text-anchor="middle" x="150" y="-182.8" font-family="Times,serif" font-size="14.00">main</text>
</g>
<!-- Node0x3be2180&#45;&gt;Node0x3be2220 -->
<g id="edge1" class="edge"><title>Node0x3be2180&#45;&gt;Node0x3be2220</title>
<path fill="none" stroke="black" d="M170.464,-241.313C167.347,-233.115 163.547,-223.123 160.072,-213.985"/>
<polygon fill="black" stroke="black" points="163.302,-212.632 156.476,-204.529 156.759,-215.12 163.302,-212.632"/>
</g>
<!-- Node0x3be2810 -->
<g id="node3" class="node"><title>Node0x3be2810</title>
<polygon fill="none" stroke="black" points="271.5,-168.5 271.5,-204.5 380.5,-204.5 380.5,-168.5 271.5,-168.5"/>
<text text-anchor="middle" x="326" y="-182.8" font-family="Times,serif" font-size="14.00">llvm.dbg.declare</text>
</g>
<!-- Node0x3be2180&#45;&gt;Node0x3be2810 -->
<g id="edge2" class="edge"><title>Node0x3be2180&#45;&gt;Node0x3be2810</title>
<path fill="none" stroke="black" d="M212.689,-241.494C233.18,-231.73 259.105,-219.376 280.984,-208.951"/>
<polygon fill="black" stroke="black" points="282.564,-212.075 290.086,-204.614 279.552,-205.756 282.564,-212.075"/>
</g>
<!-- Node0x3be22c0 -->
<g id="node4" class="node"><title>Node0x3be22c0</title>
<polygon fill="none" stroke="black" points="72,-95.5 72,-131.5 126,-131.5 126,-95.5 72,-95.5"/>
<text text-anchor="middle" x="99" y="-109.8" font-family="Times,serif" font-size="14.00">strlen</text>
</g>
<!-- Node0x3be2180&#45;&gt;Node0x3be22c0 -->
<g id="edge3" class="edge"><title>Node0x3be2180&#45;&gt;Node0x3be22c0</title>
<path fill="none" stroke="black" d="M149.093,-241.464C136.384,-232.249 122.347,-219.732 114,-205 103.054,-185.682 99.5817,-160.565 98.689,-141.694"/>
<polygon fill="black" stroke="black" points="102.187,-141.568 98.4258,-131.663 95.1894,-141.751 102.187,-141.568"/>
</g>
<!-- Node0x3be22f0 -->
<g id="node5" class="node"><title>Node0x3be22f0</title>
<polygon fill="none" stroke="black" points="0,-95.5 0,-131.5 54,-131.5 54,-95.5 0,-95.5"/>
<text text-anchor="middle" x="27" y="-109.8" font-family="Times,serif" font-size="14.00">malloc</text>
</g>
<!-- Node0x3be2180&#45;&gt;Node0x3be22f0 -->
<g id="edge4" class="edge"><title>Node0x3be2180&#45;&gt;Node0x3be22f0</title>
<path fill="none" stroke="black" d="M147.253,-241.434C131.721,-231.787 112.902,-218.894 98,-205 76.974,-185.396 57.1443,-159.223 43.814,-140.068"/>
<polygon fill="black" stroke="black" points="46.6999,-138.088 38.1656,-131.809 40.9221,-142.039 46.6999,-138.088"/>
</g>
<!-- Node0x3be2480 -->
<g id="node6" class="node"><title>Node0x3be2480</title>
<polygon fill="none" stroke="black" points="144,-95.5 144,-131.5 198,-131.5 198,-95.5 144,-95.5"/>
<text text-anchor="middle" x="171" y="-109.8" font-family="Times,serif" font-size="14.00">strcat</text>
</g>
<!-- Node0x3be2180&#45;&gt;Node0x3be2480 -->
<g id="edge5" class="edge"><title>Node0x3be2180&#45;&gt;Node0x3be2480</title>
<path fill="none" stroke="black" d="M181.089,-241.442C184.899,-223.215 189.507,-193.497 186,-168 184.785,-159.168 182.493,-149.74 180.059,-141.297"/>
<polygon fill="black" stroke="black" points="183.361,-140.129 177.082,-131.595 176.669,-142.181 183.361,-140.129"/>
</g>
<!-- Node0x3be23f0 -->
<g id="node7" class="node"><title>Node0x3be23f0</title>
<polygon fill="none" stroke="black" points="216,-95.5 216,-131.5 270,-131.5 270,-95.5 216,-95.5"/>
<text text-anchor="middle" x="243" y="-109.8" font-family="Times,serif" font-size="14.00">fwrite</text>
</g>
<!-- Node0x3be2180&#45;&gt;Node0x3be23f0 -->
<g id="edge6" class="edge"><title>Node0x3be2180&#45;&gt;Node0x3be23f0</title>
<path fill="none" stroke="black" d="M184.83,-241.416C196.242,-216.516 217.542,-170.044 230.958,-140.773"/>
<polygon fill="black" stroke="black" points="234.195,-142.111 235.18,-131.562 227.832,-139.194 234.195,-142.111"/>
</g>
<!-- Node0x3be2220&#45;&gt;Node0x3be22c0 -->
<g id="edge8" class="edge"><title>Node0x3be2220&#45;&gt;Node0x3be22c0</title>
<path fill="none" stroke="black" d="M125.898,-168.313C118.132,-159.941 110.342,-149.697 104.554,-140.403"/>
<polygon fill="black" stroke="black" points="107.494,-138.492 99.5088,-131.529 101.409,-141.952 107.494,-138.492"/>
</g>
<!-- Node0x3be2220&#45;&gt;Node0x3be22c0 -->
<g id="edge9" class="edge"><title>Node0x3be2220&#45;&gt;Node0x3be22c0</title>
<path fill="none" stroke="black" d="M137.654,-168.313C131.515,-159.766 123.975,-149.269 117.19,-139.823"/>
<polygon fill="black" stroke="black" points="119.909,-137.609 111.232,-131.529 114.223,-141.693 119.909,-137.609"/>
</g>
<!-- Node0x3be2220&#45;&gt;Node0x3be22c0 -->
<g id="edge15" class="edge"><title>Node0x3be2220&#45;&gt;Node0x3be22c0</title>
<path fill="none" stroke="black" d="M149.411,-168.313C144.971,-159.592 137.641,-148.84 129.709,-139.246"/>
<polygon fill="black" stroke="black" points="132.175,-136.749 122.955,-131.529 126.907,-141.359 132.175,-136.749"/>
</g>
<!-- Node0x3be2220&#45;&gt;Node0x3be22f0 -->
<g id="edge10" class="edge"><title>Node0x3be2220&#45;&gt;Node0x3be22f0</title>
<path fill="none" stroke="black" d="M122.702,-169.743C105.106,-159.586 82.032,-146.266 62.9497,-135.251"/>
<polygon fill="black" stroke="black" points="64.6318,-132.181 54.2214,-130.213 61.1323,-138.244 64.6318,-132.181"/>
</g>
<!-- Node0x3be2220&#45;&gt;Node0x3be2480 -->
<g id="edge11" class="edge"><title>Node0x3be2220&#45;&gt;Node0x3be2480</title>
<path fill="none" stroke="black" d="M137.449,-168.313C137.297,-159.941 139.68,-149.697 143.761,-140.403"/>
<polygon fill="black" stroke="black" points="146.868,-142.015 148.379,-131.529 140.658,-138.784 146.868,-142.015"/>
</g>
<!-- Node0x3be2220&#45;&gt;Node0x3be2480 -->
<g id="edge12" class="edge"><title>Node0x3be2220&#45;&gt;Node0x3be2480</title>
<path fill="none" stroke="black" d="M149.205,-168.313C150.772,-160.115 153.503,-150.123 156.614,-140.985"/>
<polygon fill="black" stroke="black" points="159.925,-142.122 160.102,-131.529 153.357,-139.7 159.925,-142.122"/>
</g>
<!-- Node0x3be2220&#45;&gt;Node0x3be2480 -->
<g id="edge13" class="edge"><title>Node0x3be2220&#45;&gt;Node0x3be2480</title>
<path fill="none" stroke="black" d="M160.962,-168.313C164.174,-160.289 167.289,-150.547 169.572,-141.569"/>
<polygon fill="black" stroke="black" points="173.05,-142.053 171.825,-131.529 166.22,-140.52 173.05,-142.053"/>
</g>
<!-- Node0x3be2220&#45;&gt;Node0x3be2480 -->
<g id="edge14" class="edge"><title>Node0x3be2220&#45;&gt;Node0x3be2480</title>
<path fill="none" stroke="black" d="M172.718,-168.313C177.61,-160.289 181.191,-150.547 182.727,-141.569"/>
<polygon fill="black" stroke="black" points="186.222,-141.781 183.548,-131.529 179.245,-141.21 186.222,-141.781"/>
</g>
<!-- Node0x3be2220&#45;&gt;Node0x3be23f0 -->
<g id="edge16" class="edge"><title>Node0x3be2220&#45;&gt;Node0x3be23f0</title>
<path fill="none" stroke="black" d="M172.513,-168.313C184.507,-159.156 199.434,-147.76 212.46,-137.816"/>
<polygon fill="black" stroke="black" points="214.87,-140.379 220.695,-131.529 210.622,-134.815 214.87,-140.379"/>
</g>
<!-- Node0x3be21b0 -->
<g id="node8" class="node"><title>Node0x3be21b0</title>
<ellipse fill="none" stroke="black" cx="135" cy="-41" rx="68.7879" ry="18"/>
<text text-anchor="middle" x="135" y="-37.3" font-family="Times,serif" font-size="14.00">Node0x3be21b0</text>
</g>
<!-- Node0x3be22c0&#45;&gt;Node0x3be21b0 -->
<g id="edge7" class="edge"><title>Node0x3be22c0&#45;&gt;Node0x3be21b0</title>
<path fill="none" stroke="black" d="M107.715,-95.4339C111.915,-87.2072 117.045,-77.161 121.719,-68.0089"/>
<polygon fill="black" stroke="black" points="124.935,-69.4067 126.366,-58.9089 118.701,-66.2232 124.935,-69.4067"/>
</g>
<!-- Node0x3be22f0&#45;&gt;Node0x3be21b0 -->
<g id="edge17" class="edge"><title>Node0x3be22f0&#45;&gt;Node0x3be21b0</title>
<path fill="none" stroke="black" d="M53.1438,-95.4339C67.8923,-85.8064 86.4584,-73.6869 102.179,-63.4249"/>
<polygon fill="black" stroke="black" points="104.117,-66.3396 110.577,-57.9425 100.29,-60.4779 104.117,-66.3396"/>
</g>
<!-- Node0x3be2480&#45;&gt;Node0x3be21b0 -->
<g id="edge18" class="edge"><title>Node0x3be2480&#45;&gt;Node0x3be21b0</title>
<path fill="none" stroke="black" d="M162.285,-95.4339C158.085,-87.2072 152.955,-77.161 148.281,-68.0089"/>
<polygon fill="black" stroke="black" points="151.299,-66.2232 143.634,-58.9089 145.065,-69.4067 151.299,-66.2232"/>
</g>
<!-- Node0x3be23f0&#45;&gt;Node0x3be21b0 -->
<g id="edge19" class="edge"><title>Node0x3be23f0&#45;&gt;Node0x3be21b0</title>
<path fill="none" stroke="black" d="M216.856,-95.4339C202.108,-85.8064 183.542,-73.6869 167.821,-63.4249"/>
<polygon fill="black" stroke="black" points="169.71,-60.4779 159.423,-57.9425 165.883,-66.3396 169.71,-60.4779"/>
</g>
</g>
</svg>
