<?xml version="1.0" encoding="UTF-8" standalone="no"?>
<!DOCTYPE svg PUBLIC "-//W3C//DTD SVG 1.1//EN"
 "http://www.w3.org/Graphics/SVG/1.1/DTD/svg11.dtd">
<!-- Generated by graphviz version 2.38.0 (20140413.2041)
 -->
<!-- Title: Call graph Pages: 1 -->
<svg width="240pt" height="432pt"
 viewBox="0.00 0.00 239.62 432.00" xmlns="http://www.w3.org/2000/svg" xmlns:xlink="http://www.w3.org/1999/xlink">
<g id="graph0" class="graph" transform="scale(1 1) rotate(0) translate(4 428)">
<title>Call graph</title>
<polygon fill="white" stroke="none" points="-4,4 -4,-428 235.621,-428 235.621,4 -4,4"/>
<text text-anchor="middle" x="115.811" y="-7.8" font-family="Times,serif" font-size="14.00">Call graph</text>
<!-- Node0x561b388cf520 -->
<g id="node1" class="node"><title>Node0x561b388cf520</title>
<polygon fill="none" stroke="black" points="71.6214,-387.5 71.6214,-423.5 161.621,-423.5 161.621,-387.5 71.6214,-387.5"/>
<text text-anchor="middle" x="116.621" y="-401.8" font-family="Times,serif" font-size="14.00">external node</text>
</g>
<!-- Node0x561b388cf5c0 -->
<g id="node2" class="node"><title>Node0x561b388cf5c0</title>
<polygon fill="none" stroke="black" points="12.6214,-241.5 12.6214,-277.5 66.6214,-277.5 66.6214,-241.5 12.6214,-241.5"/>
<text text-anchor="middle" x="39.6214" y="-255.8" font-family="Times,serif" font-size="14.00">x</text>
</g>
<!-- Node0x561b388cf520&#45;&gt;Node0x561b388cf5c0 -->
<g id="edge1" class="edge"><title>Node0x561b388cf520&#45;&gt;Node0x561b388cf5c0</title>
<path fill="none" stroke="black" d="M101.271,-387.043C92.9454,-376.984 82.8995,-363.823 75.6214,-351 64.0716,-330.651 54.4897,-305.859 48.1227,-287.373"/>
<polygon fill="black" stroke="black" points="51.418,-286.191 44.9242,-277.819 44.7802,-288.413 51.418,-286.191"/>
</g>
<!-- Node0x561b388cf660 -->
<g id="node3" class="node"><title>Node0x561b388cf660</title>
<polygon fill="none" stroke="black" points="67.6214,-95.5 67.6214,-131.5 121.621,-131.5 121.621,-95.5 67.6214,-95.5"/>
<text text-anchor="middle" x="94.6214" y="-109.8" font-family="Times,serif" font-size="14.00">printf</text>
</g>
<!-- Node0x561b388cf520&#45;&gt;Node0x561b388cf660 -->
<g id="edge2" class="edge"><title>Node0x561b388cf520&#45;&gt;Node0x561b388cf660</title>
<path fill="none" stroke="black" d="M91.9451,-387.454C63.4006,-365.914 18.4286,-325.822 3.62136,-278 -12.9242,-224.564 33.9608,-169.04 66.4306,-138.413"/>
<polygon fill="black" stroke="black" points="68.9186,-140.881 73.9218,-131.542 64.1867,-135.722 68.9186,-140.881"/>
</g>
<!-- Node0x561b388cf700 -->
<g id="node4" class="node"><title>Node0x561b388cf700</title>
<polygon fill="none" stroke="black" points="67.6214,-168.5 67.6214,-204.5 121.621,-204.5 121.621,-168.5 67.6214,-168.5"/>
<text text-anchor="middle" x="94.6214" y="-182.8" font-family="Times,serif" font-size="14.00">y</text>
</g>
<!-- Node0x561b388cf520&#45;&gt;Node0x561b388cf700 -->
<g id="edge3" class="edge"><title>Node0x561b388cf520&#45;&gt;Node0x561b388cf700</title>
<path fill="none" stroke="black" d="M113.75,-387.189C112.086,-376.732 110.046,-363.126 108.621,-351 103.008,-303.208 98.7072,-247.306 96.4308,-214.801"/>
<polygon fill="black" stroke="black" points="99.9154,-214.456 95.7374,-204.72 92.9319,-214.937 99.9154,-214.456"/>
</g>
<!-- Node0x561b388cf850 -->
<g id="node5" class="node"><title>Node0x561b388cf850</title>
<polygon fill="none" stroke="black" points="122.621,-241.5 122.621,-277.5 176.621,-277.5 176.621,-241.5 122.621,-241.5"/>
<text text-anchor="middle" x="149.621" y="-255.8" font-family="Times,serif" font-size="14.00">a</text>
</g>
<!-- Node0x561b388cf520&#45;&gt;Node0x561b388cf850 -->
<g id="edge4" class="edge"><title>Node0x561b388cf520&#45;&gt;Node0x561b388cf850</title>
<path fill="none" stroke="black" d="M147.061,-387.42C159.938,-378.416 173.569,-366.087 180.621,-351 190.533,-329.795 180.136,-304.509 168.787,-286.062"/>
<polygon fill="black" stroke="black" points="171.643,-284.035 163.224,-277.603 165.794,-287.882 171.643,-284.035"/>
</g>
<!-- Node0x561b388cf8f0 -->
<g id="node6" class="node"><title>Node0x561b388cf8f0</title>
<polygon fill="none" stroke="black" points="177.621,-168.5 177.621,-204.5 231.621,-204.5 231.621,-168.5 177.621,-168.5"/>
<text text-anchor="middle" x="204.621" y="-182.8" font-family="Times,serif" font-size="14.00">b</text>
</g>
<!-- Node0x561b388cf520&#45;&gt;Node0x561b388cf8f0 -->
<g id="edge5" class="edge"><title>Node0x561b388cf520&#45;&gt;Node0x561b388cf8f0</title>
<path fill="none" stroke="black" d="M156.051,-387.379C171.082,-378.742 186.724,-366.711 195.621,-351 219.764,-308.366 215.479,-249.032 210.1,-214.808"/>
<polygon fill="black" stroke="black" points="213.494,-213.893 208.35,-204.631 206.596,-215.08 213.494,-213.893"/>
</g>
<!-- Node0x561b388cf7c0 -->
<g id="node7" class="node"><title>Node0x561b388cf7c0</title>
<polygon fill="none" stroke="black" points="117.621,-314.5 117.621,-350.5 171.621,-350.5 171.621,-314.5 117.621,-314.5"/>
<text text-anchor="middle" x="144.621" y="-328.8" font-family="Times,serif" font-size="14.00">main</text>
</g>
<!-- Node0x561b388cf520&#45;&gt;Node0x561b388cf7c0 -->
<g id="edge6" class="edge"><title>Node0x561b388cf520&#45;&gt;Node0x561b388cf7c0</title>
<path fill="none" stroke="black" d="M123.399,-387.313C126.632,-379.115 130.573,-369.123 134.177,-359.985"/>
<polygon fill="black" stroke="black" points="137.493,-361.116 137.906,-350.529 130.981,-358.548 137.493,-361.116"/>
</g>
<!-- Node0x561b388cf5c0&#45;&gt;Node0x561b388cf660 -->
<g id="edge7" class="edge"><title>Node0x561b388cf5c0&#45;&gt;Node0x561b388cf660</title>
<path fill="none" stroke="black" d="M41.2502,-241.234C43.461,-222.574 48.3775,-192.255 58.6214,-168 62.6946,-158.356 68.5959,-148.618 74.4461,-140.143"/>
<polygon fill="black" stroke="black" points="77.4348,-141.982 80.4453,-131.824 71.7572,-137.888 77.4348,-141.982"/>
</g>
<!-- Node0x561b388cf5c0&#45;&gt;Node0x561b388cf700 -->
<g id="edge8" class="edge"><title>Node0x561b388cf5c0&#45;&gt;Node0x561b388cf700</title>
<path fill="none" stroke="black" d="M52.9353,-241.313C59.6235,-232.679 67.8533,-222.055 75.2288,-212.534"/>
<polygon fill="black" stroke="black" points="78.0729,-214.578 81.43,-204.529 72.5391,-210.291 78.0729,-214.578"/>
</g>
<!-- Node0x561b388cf550 -->
<g id="node8" class="node"><title>Node0x561b388cf550</title>
<ellipse fill="none" stroke="black" cx="94.6214" cy="-41" rx="89.0842" ry="18"/>
<text text-anchor="middle" x="94.6214" y="-37.3" font-family="Times,serif" font-size="14.00">Node0x561b388cf550</text>
</g>
<!-- Node0x561b388cf660&#45;&gt;Node0x561b388cf550 -->
<g id="edge11" class="edge"><title>Node0x561b388cf660&#45;&gt;Node0x561b388cf550</title>
<path fill="none" stroke="black" d="M94.6214,-95.4339C94.6214,-87.6695 94.6214,-78.2842 94.6214,-69.5597"/>
<polygon fill="black" stroke="black" points="98.1215,-69.3987 94.6214,-59.3987 91.1215,-69.3987 98.1215,-69.3987"/>
</g>
<!-- Node0x561b388cf700&#45;&gt;Node0x561b388cf660 -->
<g id="edge12" class="edge"><title>Node0x561b388cf700&#45;&gt;Node0x561b388cf660</title>
<path fill="none" stroke="black" d="M94.6214,-168.313C94.6214,-160.289 94.6214,-150.547 94.6214,-141.569"/>
<polygon fill="black" stroke="black" points="98.1215,-141.529 94.6214,-131.529 91.1215,-141.529 98.1215,-141.529"/>
</g>
<!-- Node0x561b388cf850&#45;&gt;Node0x561b388cf660 -->
<g id="edge13" class="edge"><title>Node0x561b388cf850&#45;&gt;Node0x561b388cf660</title>
<path fill="none" stroke="black" d="M147.992,-241.234C145.782,-222.574 140.865,-192.255 130.621,-168 126.548,-158.356 120.647,-148.618 114.797,-140.143"/>
<polygon fill="black" stroke="black" points="117.486,-137.888 108.797,-131.824 111.808,-141.982 117.486,-137.888"/>
</g>
<!-- Node0x561b388cf850&#45;&gt;Node0x561b388cf700 -->
<g id="edge15" class="edge"><title>Node0x561b388cf850&#45;&gt;Node0x561b388cf700</title>
<path fill="none" stroke="black" d="M136.307,-241.313C129.619,-232.679 121.389,-222.055 114.014,-212.534"/>
<polygon fill="black" stroke="black" points="116.704,-210.291 107.813,-204.529 111.17,-214.578 116.704,-210.291"/>
</g>
<!-- Node0x561b388cf850&#45;&gt;Node0x561b388cf8f0 -->
<g id="edge14" class="edge"><title>Node0x561b388cf850&#45;&gt;Node0x561b388cf8f0</title>
<path fill="none" stroke="black" d="M162.935,-241.313C169.624,-232.679 177.853,-222.055 185.229,-212.534"/>
<polygon fill="black" stroke="black" points="188.073,-214.578 191.43,-204.529 182.539,-210.291 188.073,-214.578"/>
</g>
<!-- Node0x561b388cf8f0&#45;&gt;Node0x561b388cf660 -->
<g id="edge16" class="edge"><title>Node0x561b388cf8f0&#45;&gt;Node0x561b388cf660</title>
<path fill="none" stroke="black" d="M178.274,-168.494C163.687,-159.079 145.369,-147.255 129.596,-137.075"/>
<polygon fill="black" stroke="black" points="131.435,-134.096 121.135,-131.614 127.639,-139.977 131.435,-134.096"/>
</g>
<!-- Node0x561b388cf7c0&#45;&gt;Node0x561b388cf5c0 -->
<g id="edge10" class="edge"><title>Node0x561b388cf7c0&#45;&gt;Node0x561b388cf5c0</title>
<path fill="none" stroke="black" d="M119.471,-314.494C105.676,-305.166 88.386,-293.474 73.4255,-283.358"/>
<polygon fill="black" stroke="black" points="75.1746,-280.316 64.9302,-277.614 71.2536,-286.114 75.1746,-280.316"/>
</g>
<!-- Node0x561b388cf7c0&#45;&gt;Node0x561b388cf850 -->
<g id="edge9" class="edge"><title>Node0x561b388cf7c0&#45;&gt;Node0x561b388cf850</title>
<path fill="none" stroke="black" d="M145.832,-314.313C146.397,-306.289 147.083,-296.547 147.715,-287.569"/>
<polygon fill="black" stroke="black" points="151.211,-287.75 148.422,-277.529 144.228,-287.258 151.211,-287.75"/>
</g>
</g>
</svg>
